<svg xmlns="http://www.w3.org/2000/svg" viewBox="0 0 846.74 218.43"><defs><style>.cls-1{fill:#fff;}.cls-2{fill:#ffcb05;}.cls-3{fill:#1f3400;}.cls-4{fill:#9b0000;}.cls-5{fill:#ffcb99;}.cls-6{fill:#e80016;}</style></defs><g id="Capa_2" data-name="Capa 2"><g id="Capa_1-2" data-name="Capa 1"><path class="cls-1" d="M259.47,0v12.7h-12.8V39.06h-12.8V51.74H221V65H208.13V77.56l-13.91,0V65h-12.8V51.72h-12.9V39h-12.8V12.69H143V0H129.71V12.69H117V39h-12.8V51.72H91.26V65H78.46V77.52l-13.91,0V65H51.7v-.11h-.06V51.74H38.8V39.06H26V12.72H13.2V0H0V192.67H13.4v13.08h13v12.68H246.28V205.75h13V192.67h13.4V0Z"/><path class="cls-2" d="M304.17,109.9h7.71V79.07h7.71V48.24h7.7V17.42H335V9.71h15.41V2h23.12V9.71H389v7.71h7.71V48.24h7.7V79.07h7.71V109.9h7.71v30.83h7.7v30.82h7.71v38.54h-7.71v7.71H396.66V202.38H389V179.26H335v23.12h-7.71V217.8H296.47v-7.71h-7.71V171.55h7.71V140.73h7.7Zm77.07,7.71h-7.71V86.78h-7.7V63.66h-7.71V86.78h-7.71v30.83h-7.7v23.12h38.53Z"/><path class="cls-3" d="M447.52,202.38V25.12h7.71v-7.7h7.71V9.71h7.7V2H540V9.71h7.71v7.71h7.71v7.7h7.71v7.71h7.7V56h7.71V94.49h-7.71V109.9h-7.7v7.71h-7.71v7.7h-7.71V133H524.59v7.71h7.71v7.7H540v7.71h7.71v7.71h7.71v7.7h7.71v7.71h7.7V187h7.71v23.12h-7.71v7.71H540v-7.71h-7.7v-7.71h-7.71v-7.7h-7.71V187h-7.7v-7.71h-7.71V163.85h-7.71v38.53h-7.7v7.71h-7.71v7.71H462.94v-7.71h-7.71v-7.71Zm46.24-92.48h23.12v-7.71h7.71v-7.7h7.71V56h-7.71V48.24h-7.71v-7.7h-7.7V32.83H493.76Z"/><path class="cls-4" d="M619.85,202.38V40.54H581.31V17.42H589V9.71h7.71V2h92.48V9.71h7.71v7.71h7.7V40.54H666.09V202.38h-7.71v7.71h-7.71v7.71H635.26v-7.71h-7.71v-7.71Z"/><path class="cls-5" d="M723.43,125.31h-7.71V17.42h7.71V9.71h7.7V2h15.42V9.71h7.71v7.71H762V94.49h7.71v7.7h23.12v-7.7h7.71V17.42h7.7V9.71h7.71V2h15.41V9.71H839v7.71h7.71V171.55H839V187h-7.71v7.71h-7.7v7.7h-7.71v7.71H808.2v7.71H738.84v-7.71H723.43v-7.71h-7.71V171.55h7.71v-7.7h23.12v7.7h7.71v7.71H762V187h23.12v-7.71h7.71v-7.71h7.71V133h-7.71v7.71H777.38v7.7H738.84v-7.7h-7.71V133h-7.7Z"/><polygon class="cls-1" points="77.37 136.02 77.37 153.95 60.73 153.95 60.73 170.59 42.8 170.59 42.8 153.95 26.16 153.95 26.16 136.02 42.8 136.02 42.8 119.38 60.73 119.38 60.73 136.02 77.37 136.02"/><polygon class="cls-1" points="246.54 136.02 246.54 153.95 229.9 153.95 229.9 170.59 211.97 170.59 211.97 153.95 195.5 153.95 195.5 187.49 145.05 187.49 145.05 186.94 127.46 186.94 127.46 187.49 77.47 187.49 77.47 153.43 195.33 153.43 195.33 136.02 211.97 136.02 211.97 119.38 229.9 119.38 229.9 136.02 246.54 136.02"/><polygon class="cls-1" points="77.37 136.02 77.37 153.95 60.73 153.95 60.73 170.59 42.8 170.59 42.8 153.95 26.16 153.95 26.16 136.02 42.8 136.02 42.8 119.38 60.73 119.38 60.73 136.02 77.37 136.02"/><polygon class="cls-1" points="246.54 136.02 246.54 153.95 229.9 153.95 229.9 170.59 211.97 170.59 211.97 153.95 195.5 153.95 195.5 187.49 145.03 187.49 145.03 204.45 127.94 204.45 127.94 187.49 77.47 187.49 77.47 153.43 195.33 153.43 195.33 136.02 211.97 136.02 211.97 119.38 229.9 119.38 229.9 136.02 246.54 136.02"/><polygon class="cls-5" points="127.94 170.39 127.94 187.49 77.47 187.49 77.47 153.43 110.88 153.43 110.88 170.39 127.94 170.39"/><polygon class="cls-5" points="195.5 153.43 195.5 187.49 145.03 187.49 145.03 170.39 162.09 170.39 162.09 153.43 195.5 153.43"/><rect class="cls-2" x="195.33" y="136.02" width="16.64" height="17.93"/><rect class="cls-2" x="229.9" y="136.02" width="16.64" height="17.93"/><rect class="cls-2" x="211.97" y="119.38" width="17.93" height="16.64"/><rect class="cls-3" x="211.97" y="136.02" width="17.92" height="17.92"/><rect class="cls-2" x="211.97" y="153.95" width="17.93" height="16.64"/><rect class="cls-2" x="26.16" y="136.02" width="16.64" height="17.93"/><rect class="cls-2" x="60.73" y="136.02" width="16.64" height="17.93"/><rect class="cls-2" x="42.8" y="119.38" width="17.93" height="16.64"/><rect class="cls-3" x="42.81" y="136.02" width="17.92" height="17.92"/><rect class="cls-2" x="42.8" y="153.95" width="17.93" height="16.64"/><rect class="cls-6" x="127.94" y="187.49" width="17.09" height="16.96"/><polygon class="cls-4" points="162.09 153.43 162.09 170.39 145.03 170.39 145.03 187.49 127.94 187.49 127.94 170.39 110.88 170.39 110.88 153.43 162.09 153.43"/></g></g></svg>